<svg id="Layer_1" data-name="Layer 1" xmlns="http://www.w3.org/2000/svg" viewBox="0 0 750 520"><defs><style>.cls-1{fill:#4f6f7b;}.cls-2{fill:#293746;}</style></defs><title>pc-logo-</title><path class="cls-1" d="M43,12.39q13.82,0,21.38,7T72,38q0,11.7-7.58,18.7T43,63.72H23V94.13l9.84.78v5.31H6V94.91l9.83-.78V18.54L6,17.76V12.39H43ZM23,57.57H43q10.86,0,16.32-5.52a19,19,0,0,0,5.46-13.9,19.31,19.31,0,0,0-5.43-14Q54,18.54,43,18.54H23Z"/><path class="cls-1" d="M97,35l.91,10.86v.78a23.1,23.1,0,0,1,7.57-9.44,19.14,19.14,0,0,1,11.37-3.41,16.63,16.63,0,0,1,2.68.21c.87.15,1.58.3,2.15.46l-1,6.75-5.37-.36a16.4,16.4,0,0,0-11.19,3.83,21.2,21.2,0,0,0-6.24,10.53v39l9.83.78v5.31H80.85V94.91l9.83-.78v-53l-9.83-.78V35H97Z"/><path class="cls-1" d="M124.55,66.62q0-14.42,7.91-23.65t20.93-9.23q13.08,0,21,9.23t7.9,23.65v2q0,14.48-7.87,23.68t-20.9,9.2q-13.15,0-21-9.2t-7.91-23.68Zm7.24,2q0,11.34,5.73,19.06t16,7.72q10.06,0,15.8-7.72T175,68.61v-2q0-11.16-5.76-18.94T153.39,39.9q-10.14,0-15.87,7.78t-5.73,18.94Z"/><path class="cls-1" d="M204.66,105.59q0,10.08-4.82,15.53t-13.46,5.46a18.92,18.92,0,0,1-3.47-.3,27.29,27.29,0,0,1-3.28-.84l.78-6.1A21.84,21.84,0,0,0,183,120a17.07,17.07,0,0,0,3,.3,10.3,10.3,0,0,0,8.45-3.71c2-2.48,3-6.12,3-11V41.1l-9.83-.78V35h17.07ZM204.3,16h-7.24V6.11h7.24Z"/><path class="cls-1" d="M245,101.49a26.21,26.21,0,0,1-20.39-9q-8.08-9-8.08-23V66.2q0-14,8-23.23T244,33.74q12,0,18.88,7.6t6.88,20.27v6.16H223.69v1.74q0,11,5.88,18.43A18.71,18.71,0,0,0,245,95.39a31.34,31.34,0,0,0,11.46-1.87,22.53,22.53,0,0,0,8.14-5.36l3.08,4.94a25.87,25.87,0,0,1-9.29,6.12A35.69,35.69,0,0,1,245,101.49ZM244,39.9A17.29,17.29,0,0,0,230.6,46a26.2,26.2,0,0,0-6.36,15.35l.12.3H262.6V59.86a20.88,20.88,0,0,0-5-14.23Q252.59,39.9,244,39.9Z"/><path class="cls-1" d="M306.61,95.39a20.58,20.58,0,0,0,12.67-4.1,13.44,13.44,0,0,0,5.49-11.4h6.39l.12.36q.3,9-7.21,15.14a26.87,26.87,0,0,1-17.46,6.1q-13.28,0-20.57-9.14t-7.3-23.5V66.32q0-14.23,7.3-23.41t20.51-9.17a33.16,33.16,0,0,1,13.81,2.84,27.18,27.18,0,0,1,10.2,7.72l.3,14.24h-6.15L323.56,47a20.48,20.48,0,0,0-7.21-5.15,24,24,0,0,0-9.8-1.9q-10.5,0-15.54,7.51t-5,18.91v2.53q0,11.58,5,19.06T306.61,95.39Z"/><path class="cls-1" d="M356.75,18.24V35h14.36v5.91H356.75V83.39q0,6.39,2.32,9.08a7.77,7.77,0,0,0,6.19,2.68c1.16,0,2.3-.05,3.4-.15s2.39-.27,3.83-.51l1.09,5.37a18.79,18.79,0,0,1-4.4,1.2,31.33,31.33,0,0,1-5.19.43c-4.59,0-8.15-1.45-10.71-4.35s-3.83-7.48-3.83-13.75V40.86H338.23V35h11.22V18.24Z"/><path class="cls-1" d="M78.5,318.07Q64.32,299,64.32,264.16V186.05q0-35.93,14.05-54.59t48.37-18.64q32.16,0,45.68,16.21t13.51,46.76v18.37H147.55V175.24A119.61,119.61,0,0,0,146.47,157a18.47,18.47,0,0,0-5.54-10.81Q136.48,142,127,142q-9.72,0-14.59,4.46a21.28,21.28,0,0,0-6.35,11.89,102,102,0,0,0-1.49,19.33v94.86q0,18.65,4.87,26.89T127,307.67q9.19,0,13.65-4.33a20.17,20.17,0,0,0,5.68-11.48,118.82,118.82,0,0,0,1.21-19.05V253.08h38.38v17.56q0,31.62-13.24,49.06t-45.95,17.43Q92.69,337.13,78.5,318.07Z"/><path class="cls-1" d="M214.47,115.25h39.72v91.34h44.59V115.25h40v218.9h-40V235.24H254.19v98.91H214.47Z"/><path class="cls-2" d="M607.76,343.94c-.37-1.33,1.4-3.71,1-5.47s-2.72-1.9-3.4-3.84c-1.57-4.45-4.19-8.83-4.27-13,0-1.9,3.26-2.85,3.48-4.84.12-1-1.64-5-1.57-5.22s-.38-6.39,1.84-6.71c1.52,6.08,3.22-8,3.1-7.29,1.65-9.38-.34-20.81-.49-30.31q-.79-47.79-1.57-95.58c-.38-23,3.34-50.51-1.2-73.13-1.39-6.93-2.89-6.31-6-14.31-3.68-9.36-6.29-16.58-10.82-25.46-6.14-12-2.75-15.1-2.75-28.23L433.76,28.92c-7.79-.08-22.12-3.1-29.48-.31-8.2,3.1-1.41,3.62,3.75,9.27s4.75,11.51,10,17.2c3.08,3.34,7.48,3.86,10.17,7,3.9,4.62,6.39,20.58,1.95,28.06-1.78,3-7.14,3.06-9.36,6.39-1,1.56-.89,5.81-1.83,7.55-3.07,5.61-3.26,7.62-10,11.36-11.71,6.5-30.68,2.38-37.82,13.26-10.08,15.33,14.08,20.22,5.6,38.25-1.47,3.13-7.15,7.78-8.49,10.51-1.05,2.13-.19,7-1.67,9.27-3.91,5.94-6.7,2.66-10.93,5.83-9.72,7.27-5.18,6.08-7.49,16.21-1.58,6.93-8.68,12.81-9.39,22.94-.37,5.15.58,10.36,1.59,15.09.47,2.18,2.8,3.34,3.44,5.33,1.26,3.92-1,4.85-.15,8.5,6.14,25.08,40.47,34,47,58.39,1.92,7.15,0,13.34,2.52,19.89,1.94,5,4.09,8.93,9.91,7.8,3.57-.69,2.77-6.08,4.45-6.62,4.65-1.51,23,4.57,24,9.81,1.18,6.31-4.23,3.94-5.29,8.77-.9,4.08,1.72,6.33.88,10.33-2.66,12.68-18.35,22.56-12.15,36.57,2.16,4.89,11.22,12.12,15.45,15.25,2.21,1.63,12.23,4.82,13.33,6.81,1.38,2.51-3.21,3.45,3.06,8.24-.83-.64,3.33-3.13,3.85-2.93,1.73.68,6,4.33,6.77,5a140.42,140.42,0,0,1,11.12,11.24c3.18,3.79,4.66,6.07,5.58,10.84.15.76-2.62,2.37-2,4.74.83,3.34,5.57,6.85,6,9.84.68,5-2.35,4.55-2.47,7.79-.3,7.83-.23,2.36.44,7.44.54,4,3.89,15.8,6.71,18.22,1.83,1.57,3.15,3.08,5.48,4,5.89,2.26-1.52-6-1.49-6.15,1.77.75,12.15,8.3,12.3,7.94.89-2.12-4.18-3.32-2.82-6.06,1.56-3.13,3.73-4.85,5.71-7.62,6.68-9.34,8.29-8.85,19.5-4.76,8.66,3.17,30.54,19,26.27-1-.87-4.1-4.55-5.2-4.35-10.09.36-9.09,4-6.68,9.33-9,1.89-.82,13.86-4.24,15.11-5.27,8.58-7.08,1.23-2.24.66-12.5-.49-8.87,4.62-7.56,7.37-14.41.81-2-1.79-5.48-1.79-8,0-9.57,6.16-17.08,7.86-24.66,1.45-6.45-5.46-5-.15-12,1.31-1.73,5.82-.27,7.43-1.89,2.22-2.25,11.35-19.58,11.32-20.37-3.42-3.42,8.23-12.08,8.9-13.79C611.88,356.19,609.33,349.6,607.76,343.94Zm-144.5-9.79H423.81V115.25h39.45Zm125.07,0h-93V115.25h39.72V306.86h53.24Z"/><path class="cls-1" d="M622.93,115.25h51.61q26.49,0,41.62,7.16a42.15,42.15,0,0,1,21.49,21.89Q744,159,744,183.35v79.73q0,24.87-6.35,40.26a44.31,44.31,0,0,1-21.22,23.11q-14.86,7.71-40.26,7.7H622.93Zm52.16,191.07q13.23,0,19.18-4.6a20.59,20.59,0,0,0,7.57-12.83q1.62-8.25,1.62-24.46V180.65q0-14.6-1.89-22.16a17.37,17.37,0,0,0-8-11.22q-6.09-3.65-19.06-3.65H662.65v162.7Z"/></svg>